<svg width="240" height="240" viewBox="0 0 240 240" fill="none" xmlns="http://www.w3.org/2000/svg">
<path d="M104.486 89.2709C100.375 87.1725 95.7859 86 90.9458 86C73.3026 86 59 101.579 59 120.797C59 140.015 73.9247 149.748 78.5887 151.662C83.2526 153.575 92.345 156.73 105.885 151.829C128.228 143.742 133.39 112.725 133.39 112.725" stroke="#2E004E" stroke-width="15" stroke-linecap="round"/>
<path d="M135.514 151.168C139.625 153.267 144.214 154.439 149.054 154.439C166.697 154.439 181 138.86 181 119.642C181 100.424 166.075 90.6908 161.411 88.7775C156.747 86.8642 147.655 83.7089 134.115 88.6097C111.772 96.6968 106.61 127.714 106.61 127.714" stroke="#E1B6FF" stroke-width="15" stroke-linecap="round"/>
</svg>
